<svg width="857" height="166" viewBox="0 0 857 166" fill="none" xmlns="http://www.w3.org/2000/svg">
<path d="M91.8837 1.79999C92.6037 2.51999 92.8437 3.35999 92.6037 4.31999C92.4837 5.15999 92.0037 6.06 91.1637 7.02C90.3237 7.85999 89.3037 8.75999 88.1037 9.72C86.9037 10.56 85.6437 11.34 84.3237 12.06C81.0837 19.14 77.9637 26.28 74.9637 33.48C72.0837 40.68 69.0837 47.94 65.9637 55.26C62.8437 62.46 59.5437 69.72 56.0637 77.04C52.7037 84.24 48.9237 91.32 44.7237 98.28C46.4037 102.12 48.3237 105.18 50.4837 107.46C52.7637 109.62 55.2237 110.16 57.8637 109.08C58.4637 108.84 58.9437 109.02 59.3037 109.62C59.7837 110.1 59.6037 110.58 58.7637 111.06C55.7637 112.74 52.9437 112.44 50.3037 110.16C47.7837 107.76 45.5037 104.46 43.4637 100.26C40.5837 105.18 37.5237 109.86 34.2837 114.3C33.0837 115.98 31.5237 117.96 29.6037 120.24C27.8037 122.4 25.7637 124.38 23.4837 126.18C21.2037 127.98 18.7437 129.36 16.1037 130.32C13.5837 131.28 11.0037 131.34 8.36367 130.5C5.96367 129.42 4.16367 127.74 2.96367 125.46C1.88367 123.18 1.22367 120.54 0.983672 117.54C0.863672 114.54 1.10367 111.36 1.70367 108C2.30367 104.64 3.20367 101.4 4.40367 98.28C5.72367 94.8 7.22367 91.68 8.90367 88.92C10.7037 86.04 12.4437 83.94 14.1237 82.62C17.0037 80.46 19.8837 80.04 22.7637 81.36C23.3637 81.6 23.4837 82.08 23.1237 82.8C22.8837 83.4 22.4637 83.58 21.8637 83.34C19.7037 82.5 17.5437 82.86 15.3837 84.42C14.1837 85.38 12.8637 87 11.4237 89.28C10.1037 91.56 8.84367 94.2 7.64367 97.2C6.56367 100.08 5.60367 103.2 4.76367 106.56C4.04367 109.92 3.62367 113.1 3.50367 116.1C3.50367 118.98 3.92367 121.56 4.76367 123.84C5.60367 126 7.10367 127.5 9.26367 128.34C15.0237 130.62 22.4637 125.52 31.5837 113.04C35.1837 108 38.6637 102.72 42.0237 97.2C41.0637 94.8 40.1637 92.34 39.3237 89.82C38.4837 87.3 37.7037 84.9 36.9837 82.62C36.3837 80.22 35.8437 78.06 35.3637 76.14C35.0037 74.1 34.7637 72.42 34.6437 71.1C33.2037 61.98 33.3237 54.6 35.0037 48.96C36.6837 43.2 39.5037 38.34 43.4637 34.38C47.4237 30.42 52.2837 26.94 58.0437 23.94C63.8037 20.82 70.1037 17.34 76.9437 13.5C77.4237 13.26 78.1437 12.9 79.1037 12.42C80.0637 11.94 81.1437 11.34 82.3437 10.62C82.5837 9.9 82.8237 9.36 83.0637 8.99999C83.6637 7.68 84.3237 6.42 85.0437 5.22C85.7637 4.01999 86.4837 3.05999 87.2037 2.33999C88.0437 1.5 88.8237 1.02 89.5437 0.899991C90.3837 0.779992 91.1637 1.07999 91.8837 1.79999ZM43.4637 94.86C47.1837 88.5 50.6037 82.02 53.7237 75.42C56.8437 68.7 59.8437 61.98 62.7237 55.26C65.7237 48.42 68.6637 41.58 71.5437 34.74C74.4237 27.9 77.4237 21.06 80.5437 14.22L78.0237 15.48C71.4237 19.2 65.2437 22.56 59.4837 25.56C53.8437 28.44 49.0437 31.8 45.0837 35.64C41.2437 39.36 38.4837 43.98 36.8037 49.5C35.2437 54.9 35.2437 61.98 36.8037 70.74C37.0437 71.94 37.3437 73.5 37.7037 75.42C38.1837 77.22 38.6637 79.2 39.1437 81.36C39.7437 83.52 40.4037 85.8 41.1237 88.2C41.8437 90.48 42.6237 92.7 43.4637 94.86ZM90.4437 3.23999C89.9637 2.75999 89.3037 3.05999 88.4637 4.13999C87.7437 5.21999 86.9637 6.59999 86.1237 8.27999C87.5637 7.31999 88.7637 6.35999 89.7237 5.4C90.6837 4.44 90.9237 3.71999 90.4437 3.23999ZM136.66 132.48C132.46 135.12 128.32 135.96 124.24 135C120.16 134.04 116.14 132.12 112.18 129.24C108.34 126.36 104.68 123 101.2 119.16C97.7201 115.2 94.4801 111.66 91.4801 108.54C88.4801 105.3 85.7801 102.9 83.3801 101.34C81.1001 99.66 79.2401 99.6 77.8001 101.16C77.2001 101.64 76.6601 101.64 76.1801 101.16C75.9401 101.04 75.8201 100.86 75.8201 100.62C75.8201 100.26 75.9401 99.96 76.1801 99.72L77.4401 98.64L122.44 63.54C121.24 62.34 119.38 61.8 116.86 61.92C114.34 61.92 111.52 62.46 108.4 63.54C105.4 64.5 102.28 65.82 99.0401 67.5C95.8001 69.06 92.8001 70.74 90.0401 72.54C87.2801 74.34 84.9401 76.14 83.0201 77.94C81.1001 79.62 80.0201 81.06 79.7801 82.26C79.5401 83.1 78.9401 83.46 77.9801 83.34C77.1401 83.1 76.8401 82.5 77.0801 81.54C77.4401 79.74 78.7001 77.82 80.8601 75.78C83.1401 73.62 85.8401 71.58 88.9601 69.66C92.0801 67.62 95.5001 65.82 99.2201 64.26C102.94 62.7 106.48 61.56 109.84 60.84C113.32 60.12 116.38 59.94 119.02 60.3C121.78 60.54 123.76 61.5 124.96 63.18C125.08 63.3 125.14 63.6 125.14 64.08C125.26 64.56 125.08 64.98 124.6 65.34L82.3001 97.74C84.5801 98.22 86.9801 99.66 89.5001 102.06C92.0201 104.34 94.6001 107.1 97.2401 110.34C100 113.46 102.88 116.7 105.88 120.06C108.88 123.3 111.94 126.06 115.06 128.34C118.3 130.62 121.6 132.12 124.96 132.84C128.44 133.56 131.98 132.84 135.58 130.68C136.18 130.2 136.66 130.26 137.02 130.86C137.5 131.58 137.38 132.12 136.66 132.48ZM153.877 72C154.597 71.4 155.137 71.46 155.497 72.18C155.977 72.78 155.737 73.32 154.777 73.8C154.057 74.64 153.097 75.96 151.897 77.76C150.697 79.56 149.497 81.6 148.297 83.88C147.097 86.16 145.957 88.5 144.877 90.9C143.917 93.3 143.257 95.52 142.897 97.56C142.537 99.48 142.597 101.1 143.077 102.42C143.557 103.62 144.757 104.22 146.677 104.22C147.997 104.22 149.557 103.86 151.357 103.14C153.277 102.3 155.557 100.98 158.197 99.18C160.837 97.38 163.897 95.04 167.377 92.16C170.977 89.28 175.237 85.74 180.157 81.54C180.637 81.06 181.117 81.12 181.597 81.72C182.077 82.2 182.077 82.68 181.597 83.16C173.437 90.24 166.477 95.88 160.717 100.08C154.957 104.28 150.277 106.38 146.677 106.38C144.037 106.38 142.297 105.48 141.457 103.68C140.617 101.88 140.377 99.66 140.737 97.02C141.217 94.26 142.057 91.32 143.257 88.2C144.577 85.08 146.017 82.26 147.577 79.74C145.417 81.54 143.017 83.4 140.377 85.32C137.857 87.24 135.397 88.92 132.997 90.36C130.717 91.68 128.557 92.58 126.517 93.06C124.597 93.42 123.157 93.06 122.197 91.98C121.477 91.14 121.117 90.18 121.117 89.1C120.997 87.9 121.237 86.7 121.837 85.5C122.317 84.18 123.097 82.98 124.177 81.9C125.137 80.7 126.277 79.62 127.597 78.66C128.797 77.82 130.057 77.16 131.377 76.68C132.697 76.2 133.957 75.96 135.157 75.96C136.477 75.84 137.617 76.02 138.577 76.5C139.657 76.98 140.497 77.76 141.097 78.84C141.337 79.44 141.097 79.86 140.377 80.1C139.657 80.34 139.177 80.1 138.937 79.38C138.337 77.82 137.077 77.34 135.157 77.94C133.237 78.42 131.257 79.44 129.217 81C127.297 82.44 125.737 84.12 124.537 86.04C123.217 87.96 122.977 89.46 123.817 90.54C124.537 91.62 127.237 90.96 131.917 88.56C136.717 86.16 143.257 81.3 151.537 73.98C152.017 73.5 152.437 73.14 152.797 72.9C153.157 72.54 153.517 72.24 153.877 72ZM181.888 124.2C181.288 123.6 180.868 122.7 180.628 121.5C180.508 120.18 180.928 118.5 181.888 116.46C183.568 113.1 185.848 109.92 188.728 106.92C191.728 103.92 195.028 101.16 198.628 98.64C202.348 96.12 206.308 93.84 210.508 91.8C214.828 89.76 219.148 88.02 223.468 86.58C224.428 84.18 224.908 81.9 224.908 79.74C225.028 77.46 224.428 75.48 223.108 73.8C222.148 72.48 220.828 71.52 219.148 70.92C217.588 70.32 215.788 70.2 213.748 70.56C210.508 71.16 206.728 73.02 202.408 76.14C198.208 79.14 194.008 82.62 189.808 86.58C185.728 90.42 182.008 94.26 178.648 98.1C175.168 101.82 172.708 104.64 171.268 106.56C170.788 107.04 170.308 107.1 169.828 106.74C169.348 106.26 169.288 105.72 169.648 105.12V104.94C169.888 104.46 170.608 102.84 171.808 100.08C173.008 97.32 174.508 93.96 176.308 90C177.988 85.92 179.848 81.48 181.888 76.68C184.048 71.88 186.148 67.2 188.188 62.64C190.228 57.96 192.148 53.64 193.948 49.68C195.748 45.72 197.188 42.6 198.268 40.32C198.748 39.24 199.588 38.76 200.788 38.88C202.108 39 202.528 39.66 202.048 40.86C201.688 41.34 200.848 42.78 199.528 45.18C198.328 47.58 196.888 50.52 195.208 54C193.528 57.48 191.728 61.38 189.808 65.7C187.888 69.9 185.968 74.1 184.048 78.3C182.128 82.5 180.328 86.52 178.648 90.36C176.848 94.08 175.408 97.2 174.328 99.72C176.728 96.96 179.548 93.9 182.788 90.54C186.148 87.06 189.628 83.76 193.228 80.64C196.828 77.52 200.428 74.82 204.028 72.54C207.628 70.26 210.868 68.88 213.748 68.4C218.908 67.68 222.748 69.06 225.268 72.54C226.588 74.46 227.308 76.5 227.428 78.66C227.548 80.82 227.308 83.1 226.708 85.5C231.388 84.06 236.008 83.04 240.568 82.44C245.128 81.72 249.328 81.42 253.168 81.54C253.888 81.54 254.248 81.9 254.248 82.62C254.248 83.34 253.888 83.7 253.168 83.7C248.248 83.7 243.508 84.12 238.948 84.96C234.388 85.8 230.008 86.88 225.808 88.2C224.608 91.44 222.808 94.74 220.408 98.1C218.128 101.34 215.548 104.46 212.668 107.46C209.788 110.46 206.788 113.22 203.668 115.74C200.548 118.26 197.548 120.3 194.668 121.86C191.788 123.42 189.208 124.5 186.928 125.1C184.648 125.58 182.968 125.28 181.888 124.2ZM183.508 122.76C184.468 123.84 186.628 123.54 189.988 121.86C193.348 120.06 197.068 117.48 201.148 114.12C205.228 110.76 209.188 106.92 213.028 102.6C216.988 98.16 220.048 93.78 222.208 89.46C217.288 91.26 212.668 93.36 208.348 95.76C204.148 98.04 200.368 100.44 197.008 102.96C193.648 105.48 190.828 108 188.548 110.52C186.388 113.04 184.828 115.32 183.868 117.36C182.788 119.88 182.668 121.68 183.508 122.76ZM273.733 63.9C275.173 64.86 275.413 66.3 274.453 68.22C273.613 70.02 272.113 72 269.953 74.16C267.793 76.2 265.273 78.18 262.393 80.1C259.513 82.02 256.873 83.52 254.473 84.6C252.553 87.72 250.873 90.84 249.433 93.96C247.873 97.08 246.793 99.9 246.193 102.42C245.473 104.82 245.293 106.8 245.653 108.36C246.013 109.92 247.213 110.7 249.253 110.7C252.133 110.7 255.433 109.62 259.153 107.46C262.873 105.18 266.653 102.48 270.493 99.36C274.333 96.24 277.993 93.06 281.473 89.82C284.953 86.46 287.833 83.7 290.113 81.54C290.593 81.06 291.073 81.06 291.553 81.54C291.913 82.14 291.913 82.68 291.553 83.16C289.153 85.56 286.153 88.44 282.553 91.8C278.953 95.16 275.173 98.4 271.213 101.52C267.253 104.64 263.293 107.34 259.333 109.62C255.493 111.78 252.133 112.86 249.253 112.86C246.733 112.86 245.053 112.2 244.213 110.88C243.253 109.44 242.833 107.7 242.953 105.66C243.073 103.5 243.613 101.16 244.573 98.64C245.413 96 246.433 93.48 247.633 91.08C248.713 88.56 249.853 86.28 251.053 84.24C252.133 82.08 253.033 80.46 253.753 79.38C255.073 77.22 256.633 75.06 258.433 72.9C260.233 70.74 262.033 68.88 263.833 67.32C265.753 65.64 267.553 64.44 269.233 63.72C271.033 63 272.533 63.06 273.733 63.9ZM272.473 65.7C271.873 65.22 271.033 65.34 269.953 66.06C268.873 66.66 267.613 67.68 266.173 69.12C264.733 70.56 263.173 72.36 261.493 74.52C259.813 76.56 258.193 78.78 256.633 81.18C258.073 80.34 259.633 79.44 261.313 78.48C262.993 77.4 264.613 76.2 266.173 74.88C268.333 73.08 270.073 71.28 271.393 69.48C272.833 67.68 273.193 66.42 272.473 65.7ZM330.087 82.98C329.487 83.58 328.347 84.9 326.667 86.94C325.107 88.86 323.187 91.08 320.907 93.6C318.627 96 316.107 98.52 313.347 101.16C310.587 103.8 307.827 106.08 305.067 108C302.307 109.8 299.607 111.06 296.967 111.78C294.327 112.38 291.927 112.02 289.767 110.7C287.367 109.26 286.047 106.8 285.807 103.32C285.567 99.72 286.047 95.58 287.247 90.9C288.327 86.1 289.947 81.06 292.107 75.78C294.267 70.38 296.607 65.16 299.127 60.12C301.647 54.96 304.107 50.22 306.507 45.9C309.027 41.46 311.187 37.92 312.987 35.28C313.707 34.08 314.427 33.66 315.147 34.02C315.987 34.38 316.047 35.04 315.327 36C314.367 37.56 312.747 40.26 310.467 44.1C308.307 47.94 305.967 52.38 303.447 57.42C300.927 62.34 298.467 67.56 296.067 73.08C293.667 78.6 291.747 83.88 290.307 88.92C288.867 93.84 288.087 98.16 287.967 101.88C287.847 105.48 288.867 107.94 291.027 109.26C292.707 110.22 294.687 110.34 296.967 109.62C299.247 108.78 301.647 107.46 304.167 105.66C306.807 103.86 309.447 101.76 312.087 99.36C314.727 96.84 317.127 94.38 319.287 91.98C321.567 89.58 323.487 87.42 325.047 85.5C326.727 83.58 327.867 82.26 328.467 81.54C328.947 81.06 329.427 81.06 329.907 81.54C330.507 82.02 330.567 82.5 330.087 82.98ZM368.407 82.98C367.807 83.58 366.667 84.9 364.987 86.94C363.427 88.86 361.507 91.08 359.227 93.6C356.947 96 354.427 98.52 351.667 101.16C348.907 103.8 346.147 106.08 343.387 108C340.627 109.8 337.927 111.06 335.287 111.78C332.647 112.38 330.247 112.02 328.087 110.7C325.687 109.26 324.367 106.8 324.127 103.32C323.887 99.72 324.367 95.58 325.567 90.9C326.647 86.1 328.267 81.06 330.427 75.78C332.587 70.38 334.927 65.16 337.447 60.12C339.967 54.96 342.427 50.22 344.827 45.9C347.347 41.46 349.507 37.92 351.307 35.28C352.027 34.08 352.747 33.66 353.467 34.02C354.307 34.38 354.367 35.04 353.647 36C352.687 37.56 351.067 40.26 348.787 44.1C346.627 47.94 344.287 52.38 341.767 57.42C339.247 62.34 336.787 67.56 334.387 73.08C331.987 78.6 330.067 83.88 328.627 88.92C327.187 93.84 326.407 98.16 326.287 101.88C326.167 105.48 327.187 107.94 329.347 109.26C331.027 110.22 333.007 110.34 335.287 109.62C337.567 108.78 339.967 107.46 342.487 105.66C345.127 103.86 347.767 101.76 350.407 99.36C353.047 96.84 355.447 94.38 357.607 91.98C359.887 89.58 361.807 87.42 363.367 85.5C365.047 83.58 366.187 82.26 366.787 81.54C367.267 81.06 367.747 81.06 368.227 81.54C368.827 82.02 368.887 82.5 368.407 82.98ZM395.928 72C396.648 71.4 397.188 71.46 397.548 72.18C398.028 72.78 397.788 73.32 396.828 73.8C396.108 74.64 395.148 75.96 393.948 77.76C392.748 79.56 391.548 81.6 390.348 83.88C389.148 86.16 388.008 88.5 386.928 90.9C385.968 93.3 385.308 95.52 384.948 97.56C384.588 99.48 384.648 101.1 385.128 102.42C385.608 103.62 386.808 104.22 388.728 104.22C390.048 104.22 391.608 103.86 393.408 103.14C395.328 102.3 397.608 100.98 400.248 99.18C402.888 97.38 405.948 95.04 409.428 92.16C413.028 89.28 417.288 85.74 422.208 81.54C422.688 81.06 423.168 81.12 423.648 81.72C424.128 82.2 424.128 82.68 423.648 83.16C415.488 90.24 408.528 95.88 402.768 100.08C397.008 104.28 392.328 106.38 388.728 106.38C386.088 106.38 384.348 105.48 383.508 103.68C382.668 101.88 382.428 99.66 382.788 97.02C383.268 94.26 384.108 91.32 385.308 88.2C386.628 85.08 388.068 82.26 389.628 79.74C387.468 81.54 385.068 83.4 382.428 85.32C379.908 87.24 377.448 88.92 375.048 90.36C372.768 91.68 370.608 92.58 368.568 93.06C366.648 93.42 365.208 93.06 364.248 91.98C363.528 91.14 363.168 90.18 363.168 89.1C363.048 87.9 363.288 86.7 363.888 85.5C364.368 84.18 365.148 82.98 366.228 81.9C367.188 80.7 368.328 79.62 369.648 78.66C370.848 77.82 372.108 77.16 373.428 76.68C374.748 76.2 376.008 75.96 377.208 75.96C378.528 75.84 379.668 76.02 380.628 76.5C381.708 76.98 382.548 77.76 383.148 78.84C383.388 79.44 383.148 79.86 382.428 80.1C381.708 80.34 381.228 80.1 380.988 79.38C380.388 77.82 379.128 77.34 377.208 77.94C375.288 78.42 373.308 79.44 371.268 81C369.348 82.44 367.788 84.12 366.588 86.04C365.268 87.96 365.028 89.46 365.868 90.54C366.588 91.62 369.288 90.96 373.968 88.56C378.768 86.16 385.308 81.3 393.588 73.98C394.068 73.5 394.488 73.14 394.848 72.9C395.208 72.54 395.568 72.24 395.928 72ZM494.209 71.82C493.009 73.02 491.509 74.34 489.709 75.78C488.029 77.1 486.169 78.54 484.129 80.1C485.089 83.7 486.229 87.18 487.549 90.54C488.869 93.78 490.069 96.6 491.149 99C494.149 96.48 496.369 94.14 497.809 91.98C499.249 89.7 499.609 87.9 498.889 86.58C498.409 85.86 498.529 85.38 499.249 85.14C499.849 84.78 500.329 84.9 500.689 85.5C501.289 86.46 501.469 87.78 501.229 89.46C500.989 91.14 499.669 93.3 497.269 95.94C495.949 97.38 494.209 99 492.049 100.8C494.089 104.28 496.309 107.58 498.709 110.7C501.109 113.7 503.329 115.86 505.369 117.18C507.529 118.62 509.449 118.98 511.129 118.26C511.609 117.78 512.089 117.9 512.569 118.62C512.809 119.34 512.629 119.82 512.029 120.06C510.709 120.66 509.269 120.96 507.709 120.96C506.269 120.96 504.889 120.48 503.569 119.52C501.409 118.2 499.129 115.92 496.729 112.68C494.449 109.32 492.229 105.78 490.069 102.06C489.109 102.78 488.029 103.56 486.829 104.4C485.749 105.12 484.789 105.72 483.949 106.2C482.509 107.04 480.469 108.12 477.829 109.44C475.309 110.76 472.609 111.84 469.729 112.68C466.849 113.52 464.089 113.88 461.449 113.76C458.929 113.64 456.949 112.62 455.509 110.7C452.989 106.14 454.729 100.86 460.729 94.86C463.849 91.74 467.149 88.98 470.629 86.58C474.109 84.18 477.709 81.72 481.429 79.2C480.829 76.56 480.409 73.98 480.169 71.46C479.929 68.94 479.989 66.54 480.349 64.26C480.829 61.98 481.669 60 482.869 58.32C484.069 56.52 485.809 55.14 488.089 54.18C489.769 53.34 491.509 53.16 493.309 53.64C495.109 54.12 496.549 55.14 497.629 56.7C498.709 58.38 499.129 60.6 498.889 63.36C498.769 66 497.209 68.82 494.209 71.82ZM482.869 104.4C483.709 103.8 484.729 103.14 485.929 102.42C487.129 101.7 488.209 100.98 489.169 100.26C488.209 98.22 487.009 95.58 485.569 92.34C484.249 88.98 483.049 85.44 481.969 81.72C478.849 84.12 475.609 86.64 472.249 89.28C469.009 91.8 466.129 94.32 463.609 96.84C461.089 99.24 459.169 101.58 457.849 103.86C456.649 106.02 456.529 107.88 457.489 109.44C458.329 111 459.889 111.72 462.169 111.6C464.569 111.48 467.089 111 469.729 110.16C472.369 109.32 474.889 108.36 477.289 107.28C479.809 106.08 481.669 105.12 482.869 104.4ZM489.169 56.34C485.689 58.02 483.649 60.84 483.049 64.8C482.449 68.76 482.629 73.08 483.589 77.76C486.589 75.6 489.649 73.14 492.769 70.38C495.289 67.86 496.609 65.52 496.729 63.36C496.969 61.08 496.669 59.28 495.829 57.96C494.149 55.8 491.929 55.26 489.169 56.34ZM621.112 91.98C621.352 91.98 621.532 92.04 621.652 92.16C621.892 92.16 622.132 92.16 622.372 92.16C625.372 93.12 627.772 94.5 629.572 96.3C631.372 98.1 632.452 100.14 632.812 102.42C633.052 103.02 632.812 103.44 632.092 103.68C631.252 103.68 630.832 103.38 630.832 102.78C630.112 98.94 626.992 96.24 621.472 94.68C620.752 94.44 620.152 94.32 619.672 94.32C616.912 98.64 613.372 103.86 609.052 109.98C604.852 116.1 600.292 122.28 595.372 128.52C590.452 134.76 585.412 140.64 580.252 146.16C575.212 151.8 570.472 156.24 566.032 159.48C561.712 162.72 557.932 164.46 554.692 164.7C551.572 164.94 549.472 162.84 548.392 158.4C547.552 154.8 547.612 150.9 548.572 146.7C549.532 142.5 550.912 138.36 552.712 134.28C554.632 130.32 556.852 126.54 559.372 122.94C561.892 119.22 564.352 115.98 566.752 113.22C569.632 110.1 572.992 107.1 576.832 104.22C580.792 101.22 584.992 98.64 589.432 96.48C593.992 94.32 598.672 92.76 603.472 91.8C608.392 90.72 613.192 90.54 617.872 91.26C622.552 83.22 626.932 74.94 631.012 66.42C635.092 57.9 638.272 49.86 640.552 42.3C642.832 34.62 643.852 27.78 643.612 21.78C643.372 15.78 641.272 11.28 637.312 8.27999C634.192 5.76 630.592 4.5 626.512 4.5C622.552 4.5 618.472 5.22 614.272 6.65999C610.192 8.09999 606.232 10.02 602.392 12.42C598.552 14.7 595.312 16.98 592.672 19.26C587.992 23.22 583.672 27.72 579.712 32.76C575.872 37.8 572.812 43.08 570.532 48.6C568.372 54.12 567.232 59.76 567.112 65.52C566.992 71.16 568.372 76.62 571.252 81.9C571.492 82.38 571.372 82.86 570.892 83.34C570.172 83.58 569.632 83.4 569.272 82.8C566.152 77.16 564.712 71.34 564.952 65.34C565.192 59.22 566.452 53.28 568.732 47.52C571.132 41.76 574.312 36.3 578.272 31.14C582.352 25.98 586.672 21.48 591.232 17.64C593.992 15.36 597.352 12.96 601.312 10.44C605.272 7.91999 609.412 5.93999 613.732 4.5C618.052 2.94 622.372 2.22 626.692 2.33999C631.132 2.45999 635.152 3.89999 638.752 6.65999C642.832 9.77999 645.112 14.34 645.592 20.34C646.192 26.22 645.532 33 643.612 40.68C641.692 48.36 638.692 56.64 634.612 65.52C630.652 74.28 626.152 83.1 621.112 91.98ZM550.552 157.86C551.272 161.34 552.952 162.78 555.592 162.18C558.352 161.58 561.712 159.66 565.672 156.42C569.632 153.18 573.952 148.92 578.632 143.64C583.432 138.36 588.112 132.78 592.672 126.9C597.352 121.02 601.732 115.14 605.812 109.26C610.012 103.38 613.492 98.22 616.252 93.78C613.012 93.42 609.412 93.54 605.452 94.14C601.492 94.62 597.412 95.7 593.212 97.38C589.012 98.94 584.752 101.16 580.432 104.04C576.232 106.8 572.212 110.34 568.372 114.66C564.412 118.98 561.172 123.24 558.652 127.44C556.132 131.76 554.212 135.78 552.892 139.5C551.572 143.34 550.732 146.82 550.372 149.94C550.012 153.06 550.072 155.7 550.552 157.86ZM651.944 72.36C653.624 73.56 654.764 74.82 655.364 76.14C657.044 75.18 658.664 74.76 660.224 74.88C661.784 75 663.104 75.78 664.184 77.22C664.544 77.82 664.364 78.3 663.644 78.66C663.044 79.02 662.564 78.84 662.204 78.12C661.604 77.16 660.824 76.74 659.864 76.86C658.904 76.98 657.884 77.34 656.804 77.94C658.724 79.14 660.824 80.16 663.104 81C665.504 81.72 667.784 82.26 669.944 82.62C672.224 82.98 674.264 83.1 676.064 82.98C677.864 82.74 679.124 82.26 679.844 81.54C680.324 81.06 680.744 81 681.104 81.36C681.584 81.72 681.644 82.2 681.284 82.8C680.204 83.76 678.704 84.42 676.784 84.78C674.864 85.02 672.704 85.02 670.304 84.78C668.024 84.42 665.684 83.88 663.284 83.16C660.884 82.32 658.724 81.3 656.804 80.1C657.164 82.14 657.044 84.12 656.444 86.04C655.964 87.96 655.244 89.58 654.284 90.9C653.324 92.22 652.184 93.18 650.864 93.78C649.664 94.26 648.644 94.08 647.804 93.24C646.724 92.28 646.184 91.08 646.184 89.64C646.064 88.2 646.304 86.76 646.904 85.32C647.504 83.88 648.344 82.44 649.424 81C650.624 79.56 651.944 78.36 653.384 77.4C652.064 76.08 651.164 74.82 650.684 73.62C650.324 73.26 650.324 72.9 650.684 72.54C651.044 72.18 651.464 72.12 651.944 72.36ZM648.344 91.8C648.704 92.28 649.364 92.28 650.324 91.8C651.284 91.2 652.184 90.3 653.024 89.1C653.984 87.9 654.704 86.46 655.184 84.78C655.664 82.98 655.604 81.18 655.004 79.38C653.924 80.34 652.904 81.48 651.944 82.8C650.984 84 650.144 85.2 649.424 86.4C648.824 87.6 648.404 88.74 648.164 89.82C647.924 90.78 647.984 91.44 648.344 91.8ZM671.374 105.66C671.134 106.14 670.714 106.32 670.114 106.2C669.394 106.08 669.034 105.72 669.034 105.12C669.034 104.04 669.394 102.84 670.114 101.52C670.714 100.2 671.554 98.88 672.634 97.56C674.194 93.84 676.174 89.28 678.574 83.88C680.854 78.48 683.194 73.02 685.594 67.5C688.114 61.86 690.454 56.64 692.614 51.84C694.894 46.92 696.694 43.08 698.014 40.32C698.494 39.24 699.334 38.76 700.534 38.88C701.854 39 702.274 39.66 701.794 40.86C701.194 41.46 699.934 43.68 698.014 47.52C696.214 51.24 694.054 55.74 691.534 61.02C689.134 66.18 686.614 71.64 683.974 77.4C681.454 83.16 679.174 88.32 677.134 92.88C679.054 91.08 681.214 89.4 683.614 87.84C686.014 86.16 688.354 84.78 690.634 83.7C693.034 82.62 695.314 81.84 697.474 81.36C699.634 80.88 701.434 80.88 702.874 81.36C704.794 81.96 706.174 83.16 707.014 84.96C707.854 86.64 708.454 88.5 708.814 90.54C709.294 92.58 709.714 94.56 710.074 96.48C710.554 98.28 711.334 99.54 712.414 100.26C713.014 100.62 714.154 100.68 715.834 100.44C717.514 100.08 719.674 99.24 722.314 97.92C724.474 96.84 727.294 95.04 730.774 92.52C734.374 90 738.574 86.34 743.374 81.54C743.974 81.18 744.514 81.24 744.994 81.72C745.474 82.08 745.474 82.56 744.994 83.16C739.954 88.08 735.634 91.8 732.034 94.32C728.434 96.84 725.494 98.7 723.214 99.9C717.454 102.9 713.434 103.62 711.154 102.06C709.714 101.22 708.694 99.9 708.094 98.1C707.494 96.3 706.954 94.44 706.474 92.52C706.114 90.6 705.574 88.86 704.854 87.3C704.254 85.62 703.234 84.54 701.794 84.06C700.354 83.7 698.434 83.88 696.034 84.6C693.754 85.32 691.294 86.4 688.654 87.84C686.014 89.16 683.434 90.78 680.914 92.7C678.394 94.62 676.294 96.54 674.614 98.46C672.934 102.54 671.854 104.94 671.374 105.66ZM772.451 72C773.171 71.4 773.711 71.46 774.071 72.18C774.551 72.78 774.311 73.32 773.351 73.8C772.631 74.64 771.671 75.96 770.471 77.76C769.271 79.56 768.071 81.6 766.871 83.88C765.671 86.16 764.531 88.5 763.451 90.9C762.491 93.3 761.831 95.52 761.471 97.56C761.111 99.48 761.171 101.1 761.651 102.42C762.131 103.62 763.331 104.22 765.251 104.22C766.571 104.22 768.131 103.86 769.931 103.14C771.851 102.3 774.131 100.98 776.771 99.18C779.411 97.38 782.471 95.04 785.951 92.16C789.551 89.28 793.811 85.74 798.731 81.54C799.211 81.06 799.691 81.12 800.171 81.72C800.651 82.2 800.651 82.68 800.171 83.16C792.011 90.24 785.051 95.88 779.291 100.08C773.531 104.28 768.851 106.38 765.251 106.38C762.611 106.38 760.871 105.48 760.031 103.68C759.191 101.88 758.951 99.66 759.311 97.02C759.791 94.26 760.631 91.32 761.831 88.2C763.151 85.08 764.591 82.26 766.151 79.74C763.991 81.54 761.591 83.4 758.951 85.32C756.431 87.24 753.971 88.92 751.571 90.36C749.291 91.68 747.131 92.58 745.091 93.06C743.171 93.42 741.731 93.06 740.771 91.98C740.051 91.14 739.691 90.18 739.691 89.1C739.571 87.9 739.811 86.7 740.411 85.5C740.891 84.18 741.671 82.98 742.751 81.9C743.711 80.7 744.851 79.62 746.171 78.66C747.371 77.82 748.631 77.16 749.951 76.68C751.271 76.2 752.531 75.96 753.731 75.96C755.051 75.84 756.191 76.02 757.151 76.5C758.231 76.98 759.071 77.76 759.671 78.84C759.911 79.44 759.671 79.86 758.951 80.1C758.231 80.34 757.751 80.1 757.511 79.38C756.911 77.82 755.651 77.34 753.731 77.94C751.811 78.42 749.831 79.44 747.791 81C745.871 82.44 744.311 84.12 743.111 86.04C741.791 87.96 741.551 89.46 742.391 90.54C743.111 91.62 745.811 90.96 750.491 88.56C755.291 86.16 761.831 81.3 770.111 73.98C770.591 73.5 771.011 73.14 771.371 72.9C771.731 72.54 772.091 72.24 772.451 72ZM791.822 103.5C791.462 104.1 790.982 104.28 790.382 104.04C789.662 103.8 789.482 103.38 789.842 102.78C790.442 101.22 791.762 97.86 793.802 92.7C795.722 87.42 798.362 81.36 801.722 74.52C801.962 73.8 802.622 73.44 803.702 73.44C804.902 73.44 805.382 73.92 805.142 74.88C804.542 75.48 803.822 76.5 802.982 77.94C802.262 79.38 801.422 81.06 800.462 82.98C799.622 84.9 798.782 86.94 797.942 89.1C796.982 91.26 796.082 93.3 795.242 95.22C797.042 92.7 799.142 90 801.542 87.12C804.062 84.24 806.582 81.72 809.102 79.56C811.622 77.28 814.022 75.54 816.302 74.34C818.702 73.14 820.742 73.02 822.422 73.98C824.702 75.18 825.662 77.22 825.302 80.1C824.942 82.86 824.222 85.68 823.142 88.56C822.182 91.2 821.222 93.6 820.262 95.76C819.302 97.8 819.302 99.18 820.262 99.9C820.502 100.14 820.982 100.32 821.702 100.44C822.422 100.44 823.502 100.2 824.942 99.72C826.382 99.24 828.242 98.46 830.522 97.38C832.802 96.18 835.742 94.5 839.342 92.34C841.262 91.14 843.122 89.88 844.922 88.56C846.842 87.24 848.522 86.1 849.962 85.14C851.402 84.06 852.542 83.22 853.382 82.62C854.342 81.9 854.822 81.54 854.822 81.54C855.302 81.06 855.722 81.12 856.082 81.72C856.562 82.32 856.562 82.86 856.082 83.34C856.082 83.34 855.602 83.7 854.642 84.42C853.802 85.02 852.662 85.86 851.222 86.94C849.782 87.9 848.102 89.04 846.182 90.36C844.382 91.68 842.462 92.94 840.422 94.14C839.462 94.74 838.022 95.64 836.102 96.84C834.302 97.92 832.322 99 830.162 100.08C828.002 101.04 825.902 101.76 823.862 102.24C821.822 102.72 820.202 102.54 819.002 101.7C817.562 100.62 817.142 98.88 817.742 96.48C818.342 93.96 819.122 91.38 820.082 88.74C821.162 86.1 821.942 83.64 822.422 81.36C823.022 79.08 822.542 77.46 820.982 76.5C819.542 75.66 817.382 76.26 814.502 78.3C811.742 80.22 808.862 82.68 805.862 85.68C802.862 88.68 800.102 91.8 797.582 95.04C795.062 98.16 793.322 100.62 792.362 102.42L791.822 103.5Z" fill="black"/>
</svg>
